# xmcd CD database file
#
# Track frame offsets:
#	150
#	29980
#	49567
#	67962
#	88465
#	110405
#	129255
#	150872
#	171275
#	197215
#	220517
#	240330
#	263857
#	283377
#
# Disc length: 4002 seconds
#
# Revision: 0
# Processed by: cddbd v1.4PL0 Copyright (c) Steve Scherf et al.
# Submitted via: CDex 1.50
#
DISCID=c70fa00e
DTITLE=John Bunch with Phil Flanigan - Struttin'
DYEAR=1996
DGENRE=Jazz
TTITLE0=Ona Slow Boat to China
TTITLE1=Smoke Gets in Your Eyes
TTITLE2=Crazeology
TTITLE3=Prelude to a Kiss
TTITLE4=Prelude in C Minor
TTITLE5=Please Don't Talk ABout Me When I,m Gone
TTITLE6=Don't Misunderstanding
TTITLE7=Laverene Walk
TTITLE8=Sultry Sesnade
TTITLE9=It Ain't Necessary So
TTITLE10=I Can't Believe That You're in Love with Me
TTITLE11=Mr Lucky
TTITLE12=As Long as I Live
TTITLE13=Struttin' with Some Barbecue
EXTD=YEAR: 1996
EXTT0=
EXTT1=
EXTT2=
EXTT3=
EXTT4=
EXTT5=
EXTT6=
EXTT7=
EXTT8=
EXTT9=
EXTT10=
EXTT11=
EXTT12=
EXTT13=
PLAYORDER=
